<?xml version="1.0" encoding="UTF-8" standalone="no"?>
<svg
   xmlns:dc="http://purl.org/dc/elements/1.1/"
   xmlns:cc="http://creativecommons.org/ns#"
   xmlns:rdf="http://www.w3.org/1999/02/22-rdf-syntax-ns#"
   xmlns:svg="http://www.w3.org/2000/svg"
   xmlns="http://www.w3.org/2000/svg"
   xmlns:sodipodi="http://sodipodi.sourceforge.net/DTD/sodipodi-0.dtd"
   xmlns:inkscape="http://www.inkscape.org/namespaces/inkscape"
   width="210mm"
   height="297mm"
   viewBox="0 0 210 297"
   version="1.1"
   id="svg8"
   sodipodi:docname="usuario.svg"
   inkscape:version="1.0 (4035a4fb49, 2020-05-01)">
  <defs
     id="defs2" />
  <sodipodi:namedview
     id="base"
     pagecolor="#ffffff"
     bordercolor="#666666"
     borderopacity="1.0"
     inkscape:pageopacity="0.0"
     inkscape:pageshadow="2"
     inkscape:zoom="0.35"
     inkscape:cx="486.59471"
     inkscape:cy="293.62499"
     inkscape:document-units="mm"
     inkscape:current-layer="layer1"
     inkscape:document-rotation="0"
     showgrid="false"
     inkscape:window-width="1440"
     inkscape:window-height="847"
     inkscape:window-x="-8"
     inkscape:window-y="-8"
     inkscape:window-maximized="1" />
  <metadata
     id="metadata5">
    <rdf:RDF>
      <cc:Work
         rdf:about="">
        <dc:format>image/svg+xml</dc:format>
        <dc:type
           rdf:resource="http://purl.org/dc/dcmitype/StillImage" />
      </cc:Work>
    </rdf:RDF>
  </metadata>
  <g
     inkscape:label="Layer 1"
     inkscape:groupmode="layer"
     id="layer1">
    <g
       inkscape:export-ydpi="299"
       inkscape:export-xdpi="299"
       id="g864"
       transform="matrix(1.7488765,0,0,1.7488765,-236.58084,-220.89425)"
       style="fill:#ff0000">
      <path
         style="fill:#ff0000;fill-opacity:1;stroke-width:0.0849498"
         d="m 158.62345,232.13754 -0.50704,-0.53093 0.53093,0.50704 c 0.4932,0.47099 0.56981,0.55483 0.50704,0.55483 -0.0131,0 -0.25206,-0.23892 -0.53093,-0.53094 z m 74.50366,-0.23361 c 0.0846,-0.0934 0.17287,-0.1699 0.19623,-0.1699 0.0234,0 -0.0267,0.0765 -0.11128,0.1699 -0.0846,0.0934 -0.17288,0.1699 -0.19624,0.1699 -0.0234,0 0.0267,-0.0764 0.11129,-0.1699 z m -70.98642,-0.99816 c -0.10567,-0.13474 -0.10267,-0.13774 0.0321,-0.0321 0.1415,0.11098 0.18651,0.18074 0.11659,0.18074 -0.0176,0 -0.0845,-0.0669 -0.14866,-0.14866 z m 67.1212,0.11659 c 0,-0.0176 0.0669,-0.0845 0.14866,-0.14867 0.13474,-0.10566 0.13774,-0.10266 0.0321,0.0321 -0.11098,0.1415 -0.18074,0.18651 -0.18074,0.11659 z m -69.41485,-2.41023 c -0.10567,-0.13474 -0.10266,-0.13774 0.0321,-0.0321 0.0818,0.0641 0.14867,0.13102 0.14867,0.14866 0,0.0699 -0.0698,0.0249 -0.18074,-0.11658 z m 71.70849,0.11658 c 0,-0.0176 0.0669,-0.0845 0.14867,-0.14866 0.13473,-0.10566 0.13773,-0.10266 0.0321,0.0321 -0.11098,0.1415 -0.18074,0.1865 -0.18074,0.11658 z m -59.46488,-6.11638 c 0,-0.0176 0.0669,-0.0845 0.14866,-0.14867 0.13474,-0.10566 0.13774,-0.10266 0.0321,0.0321 -0.11098,0.1415 -0.18074,0.1865 -0.18074,0.11659 z m 45.52228,-1.81559 c -0.10567,-0.13473 -0.10267,-0.13774 0.0321,-0.0321 0.1415,0.11097 0.1865,0.18073 0.11659,0.18073 -0.0176,0 -0.0845,-0.0669 -0.14866,-0.14866 z m -23.03181,-8.57248 c 0.0584,-0.0236 0.15397,-0.0236 0.21237,0 0.0584,0.0236 0.0106,0.0429 -0.10618,0.0429 -0.11681,0 -0.16459,-0.0193 -0.10619,-0.0429 z m 2.12375,0 c 0.0584,-0.0236 0.15397,-0.0236 0.21237,0 0.0584,0.0236 0.0106,0.0429 -0.10619,0.0429 -0.1168,0 -0.16459,-0.0193 -0.10618,-0.0429 z m -53.4055,-15.02941 c 0.004,-0.099 0.0242,-0.11909 0.0513,-0.0513 0.0245,0.0613 0.0215,0.1346 -0.007,0.16282 -0.0282,0.0282 -0.0483,-0.0219 -0.0446,-0.11149 z m 3.32289,-0.92737 c 0.002,-0.14017 0.0208,-0.18723 0.0423,-0.10457 0.0215,0.0827 0.0201,0.19733 -0.003,0.25485 -0.0233,0.0575 -0.0409,-0.0101 -0.0392,-0.15028 z m 98.28695,-0.0849 c 0.002,-0.14017 0.0208,-0.18723 0.0423,-0.10457 0.0215,0.0827 0.0201,0.19733 -0.003,0.25485 -0.0233,0.0575 -0.0409,-0.0101 -0.0392,-0.15028 z m 0,-2.29365 c 0.002,-0.14016 0.0208,-0.18722 0.0423,-0.10457 0.0215,0.0827 0.0201,0.19734 -0.003,0.25485 -0.0233,0.0575 -0.0409,-0.0101 -0.0392,-0.15028 z m -98.28695,-0.0849 c 0.002,-0.14016 0.0208,-0.18722 0.0423,-0.10457 0.0215,0.0827 0.0201,0.19734 -0.003,0.25485 -0.0233,0.0575 -0.0409,-0.0101 -0.0392,-0.15028 z m -3.32289,-0.94152 c 0.004,-0.099 0.0242,-0.1191 0.0513,-0.0513 0.0245,0.0613 0.0215,0.13459 -0.007,0.16282 -0.0282,0.0282 -0.0483,-0.0219 -0.0446,-0.11149 z m 16.47356,-31.32901 c 0,-0.0176 0.0669,-0.0845 0.14866,-0.14866 0.13473,-0.10567 0.13774,-0.10267 0.0321,0.0321 -0.11097,0.1415 -0.18073,0.18651 -0.18073,0.11659 z m 71.85671,-0.11659 c -0.10566,-0.13474 -0.10266,-0.13774 0.0321,-0.0321 0.1415,0.11097 0.18651,0.18073 0.11659,0.18073 -0.0176,0 -0.0845,-0.0669 -0.14867,-0.14866 z m -69.56307,-2.17706 c 0,-0.0176 0.0669,-0.0845 0.14866,-0.14866 0.13474,-0.10567 0.13774,-0.10266 0.0321,0.0321 -0.11098,0.14151 -0.18074,0.18651 -0.18074,0.11659 z m 67.26943,-0.11659 c -0.10566,-0.13473 -0.10266,-0.13774 0.0321,-0.0321 0.1415,0.11098 0.1865,0.18074 0.11658,0.18074 -0.0176,0 -0.0845,-0.0669 -0.14866,-0.14867 z m -70.66742,-1.25301 c 0.25378,-0.25697 0.48053,-0.46722 0.50389,-0.46722 0.0234,0 -0.16516,0.21025 -0.41894,0.46722 -0.25378,0.25698 -0.48053,0.46723 -0.5039,0.46723 -0.0234,0 0.16517,-0.21025 0.41895,-0.46723 z m 74.1612,0 c -0.20634,-0.21025 -0.35606,-0.38227 -0.3327,-0.38227 0.0234,0 0.21131,0.17202 0.41765,0.38227 0.20634,0.21026 0.35606,0.38228 0.3327,0.38228 -0.0234,0 -0.21131,-0.17202 -0.41765,-0.38228 z m -38.46103,-11.994 c 0.0818,-0.0214 0.21556,-0.0214 0.29732,0 0.0818,0.0214 0.0149,0.0388 -0.14866,0.0388 -0.16353,0 -0.23043,-0.0175 -0.14866,-0.0388 z m 2.63506,-3.2e-4 c 0.0827,-0.0215 0.19733,-0.0201 0.25485,0.003 0.0575,0.0233 -0.0101,0.0409 -0.15028,0.0392 -0.14017,-0.002 -0.18723,-0.0208 -0.10457,-0.0423 z m 0.89566,-3.3122 c 0.0613,-0.0245 0.1346,-0.0215 0.16282,0.007 0.0282,0.0282 -0.0219,0.0483 -0.11149,0.0446 -0.099,-0.004 -0.11909,-0.0242 -0.0513,-0.0513 z"
         id="path876" />
      <path
         style="fill:#ff0000;fill-opacity:1;stroke-width:0.0849498"
         d="m 193.86066,247.47583 c 0.0827,-0.0215 0.19734,-0.0201 0.25485,0.003 0.0575,0.0233 -0.0101,0.0409 -0.15028,0.0392 -0.14016,-0.002 -0.18722,-0.0208 -0.10457,-0.0423 z m 3.65285,0 c 0.0827,-0.0215 0.19733,-0.0201 0.25485,0.003 0.0575,0.0233 -0.0101,0.0409 -0.15028,0.0392 -0.14017,-0.002 -0.18723,-0.0208 -0.10457,-0.0423 z m 20.35426,-26.42424 c -0.10566,-0.13474 -0.10266,-0.13774 0.0321,-0.0321 0.0818,0.0641 0.14866,0.13102 0.14866,0.14866 0,0.0699 -0.0698,0.0249 -0.18074,-0.11659 z m -44.24802,0.0316 c 0,-0.0176 0.0669,-0.0845 0.14866,-0.14866 0.13474,-0.10567 0.13774,-0.10266 0.0321,0.0321 -0.11098,0.14151 -0.18074,0.18651 -0.18074,0.11659 z m 21.38612,-8.86266 c 0.10512,-0.0203 0.27715,-0.0203 0.38227,0 0.10513,0.0203 0.0191,0.0368 -0.19113,0.0368 -0.21025,0 -0.29627,-0.0166 -0.19114,-0.0368 z m 0.93597,-0.002 c 0.15268,-0.0189 0.38205,-0.0185 0.5097,8.7e-4 0.12765,0.0194 0.003,0.0349 -0.27761,0.0344 -0.28034,-5.1e-4 -0.38478,-0.0163 -0.23209,-0.0352 z M 182.02978,197.8811 c -0.20634,-0.21025 -0.35606,-0.38227 -0.3327,-0.38227 0.0234,0 0.21131,0.17202 0.41765,0.38227 0.20635,0.21026 0.35606,0.38228 0.3327,0.38228 -0.0234,0 -0.2113,-0.17202 -0.41765,-0.38228 z m 27.5202,-0.0637 c 0.2083,-0.22193 0.38988,-0.40351 0.40351,-0.40351 0.0638,0 -0.004,0.0763 -0.37873,0.4283 l -0.40351,0.37872 z m -66.24391,-0.91321 c 0,-0.1168 0.0193,-0.16459 0.0428,-0.10619 0.0236,0.0584 0.0236,0.15398 0,0.21238 -0.0236,0.0584 -0.0428,0.0106 -0.0428,-0.10619 z m 104.91619,-0.0425 c 0.002,-0.14017 0.0208,-0.18723 0.0423,-0.10457 0.0215,0.0827 0.0201,0.19733 -0.003,0.25485 -0.0233,0.0575 -0.0409,-0.0101 -0.0392,-0.15028 z m -101.6,-0.1699 c 0.002,-0.14017 0.0208,-0.18723 0.0423,-0.10457 0.0215,0.0827 0.0201,0.19733 -0.003,0.25485 -0.0233,0.0575 -0.0409,-0.0101 -0.0392,-0.15028 z m 98.28695,-0.0849 c 0.002,-0.14017 0.0208,-0.18723 0.0423,-0.10457 0.0215,0.0827 0.0201,0.19733 -0.003,0.25485 -0.0233,0.0575 -0.0409,-0.0101 -0.0392,-0.15028 z m 0,-3.14315 c 0.002,-0.14016 0.0208,-0.18722 0.0423,-0.10457 0.0215,0.0827 0.0201,0.19734 -0.003,0.25485 -0.0233,0.0575 -0.0409,-0.0101 -0.0392,-0.15028 z m -98.28695,-0.085 c 0.002,-0.14016 0.0208,-0.18722 0.0423,-0.10457 0.0215,0.0827 0.0201,0.19734 -0.003,0.25485 -0.0233,0.0575 -0.0409,-0.0101 -0.0392,-0.15028 z m -3.31619,-0.21237 c 0,-0.11681 0.0193,-0.16459 0.0428,-0.10619 0.0236,0.0584 0.0236,0.15397 0,0.21238 -0.0236,0.0584 -0.0428,0.0106 -0.0428,-0.10619 z m 104.91304,0 c 0,-0.11681 0.0193,-0.16459 0.0428,-0.10619 0.0236,0.0584 0.0236,0.15397 0,0.21238 -0.0236,0.0584 -0.0428,0.0106 -0.0428,-0.10619 z m -66.2318,-22.85151 c 0.2301,-0.23361 0.43747,-0.42474 0.46084,-0.42474 0.0234,0 -0.14579,0.19113 -0.37589,0.42474 -0.2301,0.23362 -0.43748,0.42475 -0.46084,0.42475 -0.0234,0 0.14579,-0.19113 0.37589,-0.42475 z m 27.39174,-0.14866 -0.29275,-0.31856 0.31857,0.29275 c 0.29651,0.27249 0.35762,0.34437 0.29275,0.34437 -0.0142,0 -0.15755,-0.14335 -0.31857,-0.31856 z M 193.98647,145.878 c 0.0584,-0.0236 0.15397,-0.0236 0.21238,0 0.0584,0.0236 0.0106,0.0428 -0.10619,0.0428 -0.11681,0 -0.16459,-0.0193 -0.10619,-0.0428 z m 3.39799,0 c 0.0584,-0.0236 0.15398,-0.0236 0.21238,0 0.0584,0.0236 0.0106,0.0428 -0.10619,0.0428 -0.1168,0 -0.16459,-0.0193 -0.10619,-0.0428 z m -3.56789,-3.31304 c 0.0584,-0.0236 0.15397,-0.0236 0.21238,0 0.0584,0.0236 0.0106,0.0428 -0.10619,0.0428 -0.11681,0 -0.16459,-0.0193 -0.10619,-0.0428 z m 3.69694,-0.003 c 0.0827,-0.0215 0.19733,-0.0201 0.25485,0.003 0.0575,0.0233 -0.0101,0.0409 -0.15028,0.0392 -0.14017,-0.002 -0.18723,-0.0208 -0.10457,-0.0423 z"
         id="path874" />
      <path
         style="fill:#ff0000;fill-opacity:1;stroke-width:0.0849498"
         d="m 194.2838,247.47614 c 0.0818,-0.0214 0.21556,-0.0214 0.29732,0 0.0818,0.0214 0.0149,0.0389 -0.14866,0.0389 -0.16353,0 -0.23043,-0.0175 -0.14866,-0.0389 z m 2.71839,0 c 0.0818,-0.0214 0.21556,-0.0214 0.29732,0 0.0818,0.0214 0.0149,0.0389 -0.14866,0.0389 -0.16353,0 -0.23042,-0.0175 -0.14866,-0.0389 z M 172.6853,222.00728 c 0.10974,-0.11681 0.21863,-0.21238 0.24199,-0.21238 0.0234,0 -0.0473,0.0956 -0.15704,0.21238 -0.10973,0.1168 -0.21863,0.21237 -0.24199,0.21237 -0.0234,0 0.0473,-0.0956 0.15704,-0.21237 z m 45.99634,-0.14867 -0.33581,-0.36103 0.36104,0.3358 c 0.33576,0.31229 0.40008,0.38627 0.3358,0.38627 -0.0139,0 -0.17634,-0.16247 -0.36103,-0.36104 z m -45.27427,-0.57341 c 0.0846,-0.0934 0.17288,-0.1699 0.19624,-0.1699 0.0234,0 -0.0267,0.0765 -0.11129,0.1699 -0.0846,0.0934 -0.17287,0.1699 -0.19623,0.1699 -0.0234,0 0.0267,-0.0764 0.11128,-0.1699 z m 44.71525,0.0212 c -0.10566,-0.13474 -0.10266,-0.13774 0.0321,-0.0321 0.1415,0.11097 0.1865,0.18073 0.11659,0.18073 -0.0176,0 -0.0845,-0.0669 -0.14867,-0.14866 z m -71.51021,-24.28149 c 0.004,-0.099 0.0242,-0.11909 0.0513,-0.0513 0.0245,0.0613 0.0215,0.1346 -0.007,0.16282 -0.0282,0.0282 -0.0483,-0.0219 -0.0446,-0.11149 z m 98.28695,-0.0849 c 0.004,-0.099 0.0242,-0.11909 0.0513,-0.0513 0.0245,0.0613 0.0215,0.1346 -0.007,0.16282 -0.0282,0.0282 -0.0483,-0.0219 -0.0446,-0.11149 z m -101.59014,-0.41767 c 0.002,-0.14017 0.0208,-0.18723 0.0423,-0.10457 0.0215,0.0827 0.0201,0.19733 -0.003,0.25485 -0.0233,0.0575 -0.0409,-0.0101 -0.0392,-0.15028 z m 104.91304,-0.085 c 0.002,-0.14017 0.0208,-0.18723 0.0423,-0.10457 0.0215,0.0827 0.0201,0.19733 -0.003,0.25485 -0.0233,0.0575 -0.0409,-0.0101 -0.0392,-0.15028 z m 0.003,-2.84582 c 0,-0.16353 0.0175,-0.23043 0.0388,-0.14866 0.0214,0.0818 0.0214,0.21556 0,0.29732 -0.0214,0.0818 -0.0388,0.0149 -0.0388,-0.14866 z m -104.91618,-0.0425 c 0.002,-0.14016 0.0208,-0.18722 0.0423,-0.10457 0.0215,0.0827 0.0201,0.19734 -0.003,0.25485 -0.0233,0.0575 -0.0409,-0.0101 -0.0392,-0.15028 z m 101.59014,-0.43183 c 0.004,-0.099 0.0242,-0.11909 0.0513,-0.0513 0.0245,0.0613 0.0215,0.13459 -0.007,0.16282 -0.0282,0.0282 -0.0483,-0.0219 -0.0446,-0.1115 z m -98.28695,-0.0849 c 0.004,-0.099 0.0242,-0.1191 0.0513,-0.0513 0.0245,0.0613 0.0215,0.13459 -0.007,0.16282 -0.0282,0.0282 -0.0483,-0.0219 -0.0446,-0.11149 z m 47.12452,-47.15564 c 0.0613,-0.0245 0.13459,-0.0215 0.16282,0.007 0.0282,0.0282 -0.0219,0.0483 -0.11149,0.0446 -0.099,-0.004 -0.1191,-0.0242 -0.0513,-0.0513 z m 3.99264,0 c 0.0613,-0.0245 0.1346,-0.0215 0.16282,0.007 0.0282,0.0282 -0.0219,0.0483 -0.11149,0.0446 -0.099,-0.004 -0.11909,-0.0242 -0.0513,-0.0513 z m -3.53072,-3.31357 c 0.0818,-0.0214 0.21556,-0.0214 0.29732,0 0.0818,0.0214 0.0149,0.0388 -0.14866,0.0388 -0.16353,0 -0.23043,-0.0175 -0.14866,-0.0388 z m 2.88991,-3.1e-4 c 0.0827,-0.0215 0.19733,-0.0201 0.25485,0.003 0.0575,0.0233 -0.0101,0.0409 -0.15028,0.0392 -0.14017,-0.002 -0.18723,-0.0208 -0.10457,-0.0423 z"
         id="path872" />
      <path
         style="fill:#ff0000;fill-opacity:1;stroke-width:0.0849498"
         d="m 195.21824,247.4717 c 0.31538,-0.0163 0.83145,-0.0163 1.14683,0 0.31537,0.0163 0.0573,0.0297 -0.57341,0.0297 -0.63076,0 -0.88879,-0.0134 -0.57342,-0.0297 z m -2.67061,-0.08 c 0.0613,-0.0245 0.1346,-0.0215 0.16282,0.007 0.0282,0.0282 -0.0219,0.0483 -0.11149,0.0446 -0.099,-0.004 -0.11909,-0.0242 -0.0513,-0.0513 z m -32.65535,-14.06488 -0.16183,-0.19114 0.19114,0.16183 c 0.10512,0.089 0.19114,0.17502 0.19114,0.19114 0,0.068 -0.0684,0.0178 -0.22045,-0.16183 z m 71.70573,0.0212 c 0.0846,-0.0935 0.17287,-0.1699 0.19623,-0.1699 0.0234,0 -0.0267,0.0764 -0.11128,0.1699 -0.0846,0.0934 -0.17287,0.1699 -0.19624,0.1699 -0.0234,0 0.0267,-0.0765 0.11129,-0.1699 z m -74.21451,-2.52726 c -0.10567,-0.13474 -0.10267,-0.13774 0.0321,-0.0321 0.1415,0.11098 0.1865,0.18074 0.11659,0.18074 -0.0176,0 -0.0845,-0.0669 -0.14866,-0.14866 z m 76.63558,0.11659 c 0,-0.0176 0.0669,-0.0845 0.14866,-0.14867 0.13474,-0.10566 0.13774,-0.10266 0.0321,0.0321 -0.11098,0.1415 -0.18074,0.18651 -0.18074,0.11659 z m -60.9515,-9.31241 c 0.0846,-0.0934 0.17287,-0.1699 0.19623,-0.1699 0.0234,0 -0.0267,0.0765 -0.11128,0.1699 -0.0846,0.0934 -0.17288,0.1699 -0.19624,0.1699 -0.0234,0 0.0267,-0.0765 0.11129,-0.1699 z m -29.68326,-23.41076 c 0.004,-0.099 0.0242,-0.11909 0.0513,-0.0513 0.0245,0.0613 0.0215,0.13459 -0.007,0.16282 -0.0282,0.0282 -0.0483,-0.0219 -0.0446,-0.1115 z m 104.74313,0 c 0.004,-0.099 0.0242,-0.11909 0.0513,-0.0513 0.0245,0.0613 0.0215,0.13459 -0.007,0.16282 -0.0282,0.0282 -0.0483,-0.0219 -0.0446,-0.1115 z m -3.22809,-1.01939 c 0.004,-0.099 0.0242,-0.11909 0.0513,-0.0513 0.0245,0.0613 0.0215,0.1346 -0.007,0.16282 -0.0282,0.0282 -0.0483,-0.0219 -0.0446,-0.11149 z M 143.31237,196.0551 c 0,-0.16353 0.0175,-0.23042 0.0389,-0.14866 0.0214,0.0818 0.0214,0.21556 0,0.29733 -0.0214,0.0818 -0.0389,0.0149 -0.0389,-0.14867 z m 104.90989,-0.0425 c 0.002,-0.14017 0.0208,-0.18723 0.0423,-0.10457 0.0215,0.0827 0.0201,0.19733 -0.003,0.25485 -0.0233,0.0575 -0.0409,-0.0101 -0.0392,-0.15028 z m 0.003,-1.91137 c 0,-0.16353 0.0175,-0.23043 0.0388,-0.14867 0.0214,0.0818 0.0214,0.21556 0,0.29733 -0.0214,0.0818 -0.0388,0.0149 -0.0388,-0.14866 z m -104.91303,-0.0849 c 0,-0.16353 0.0175,-0.23043 0.0389,-0.14867 0.0214,0.0818 0.0214,0.21557 0,0.29733 -0.0214,0.0818 -0.0389,0.0149 -0.0389,-0.14866 z m 101.58699,-1.1539 c 0.004,-0.099 0.0242,-0.1191 0.0513,-0.0513 0.0245,0.0613 0.0215,0.13459 -0.007,0.16282 -0.0282,0.0282 -0.0483,-0.0219 -0.0446,-0.11149 z m -101.51504,-1.0194 c 0.004,-0.099 0.0242,-0.11909 0.0513,-0.0513 0.0245,0.0613 0.0215,0.1346 -0.007,0.16282 -0.0282,0.0282 -0.0483,-0.0219 -0.0446,-0.11149 z m 13.92506,-32.51831 c 0,-0.0176 0.0669,-0.0845 0.14866,-0.14866 0.13474,-0.10567 0.13774,-0.10266 0.0321,0.0321 -0.11098,0.14151 -0.18074,0.18651 -0.18074,0.11659 z m 76.78381,-0.11659 c -0.10566,-0.13473 -0.10266,-0.13774 0.0321,-0.0321 0.0818,0.0641 0.14866,0.13102 0.14866,0.14866 0,0.0699 -0.0698,0.0249 -0.18074,-0.11659 z m -74.23531,-2.4319 c 0,-0.0176 0.0669,-0.0845 0.14866,-0.14866 0.13473,-0.10567 0.13774,-0.10267 0.0321,0.0321 -0.11097,0.1415 -0.18073,0.1865 -0.18073,0.11659 z m 71.68681,-0.11659 c -0.10566,-0.13474 -0.10266,-0.13774 0.0321,-0.0321 0.1415,0.11097 0.18651,0.18073 0.11659,0.18073 -0.0176,0 -0.0845,-0.0669 -0.14867,-0.14866 z m -38.06261,-10.78295 c 0.0613,-0.0245 0.13459,-0.0215 0.16282,0.007 0.0282,0.0282 -0.0219,0.0483 -0.11149,0.0446 -0.099,-0.004 -0.1191,-0.0242 -0.0513,-0.0513 z m 4.50234,0 c 0.0613,-0.0245 0.1346,-0.0215 0.16282,0.007 0.0282,0.0282 -0.0219,0.0483 -0.11149,0.0446 -0.099,-0.004 -0.11909,-0.0242 -0.0513,-0.0513 z m 0.93445,-3.22809 c 0.0613,-0.0245 0.13459,-0.0215 0.16282,0.007 0.0282,0.0282 -0.0219,0.0483 -0.1115,0.0446 -0.099,-0.004 -0.11909,-0.0242 -0.0513,-0.0513 z m -4.21033,-0.0855 c 0.0818,-0.0214 0.21556,-0.0214 0.29733,0 0.0818,0.0214 0.0149,0.0388 -0.14866,0.0388 -0.16353,0 -0.23043,-0.0175 -0.14867,-0.0388 z m 1.74148,-0.001 c 0.10512,-0.0203 0.27715,-0.0203 0.38227,0 0.10513,0.0203 0.0191,0.0368 -0.19114,0.0368 -0.21025,0 -0.29626,-0.0166 -0.19113,-0.0368 z"
         id="path870" />
      <path
         style="fill:#ff0000;fill-opacity:1;stroke-width:0.0849498"
         d="m 192.80248,247.39172 c 0.0613,-0.0245 0.1346,-0.0215 0.16282,0.007 0.0282,0.0282 -0.0219,0.0483 -0.11149,0.0446 -0.099,-0.004 -0.11909,-0.0242 -0.0513,-0.0513 z m 5.86154,0 c 0.0613,-0.0245 0.13459,-0.0215 0.16282,0.007 0.0282,0.0282 -0.0219,0.0483 -0.11149,0.0446 -0.099,-0.004 -0.1191,-0.0242 -0.0513,-0.0513 z m -37.96748,-13.34281 c -0.10567,-0.13473 -0.10266,-0.13773 0.0321,-0.0321 0.0818,0.0641 0.14866,0.13102 0.14866,0.14866 0,0.0699 -0.0698,0.0249 -0.18073,-0.11659 z m 70.0095,0.11659 c 0,-0.0176 0.0669,-0.0845 0.14866,-0.14866 0.13474,-0.10566 0.13774,-0.10266 0.0321,0.0321 -0.11097,0.14151 -0.18073,0.18651 -0.18073,0.11659 z m -71.19439,-1.22093 -0.20595,-0.23362 0.23362,0.20595 c 0.21834,0.19249 0.27256,0.26128 0.20594,0.26128 -0.0152,0 -0.12034,-0.10513 -0.23361,-0.23361 z m 72.46863,0.0212 c 0.10973,-0.1168 0.21863,-0.21237 0.24199,-0.21237 0.0234,0 -0.0473,0.0956 -0.15704,0.21237 -0.10973,0.11681 -0.21862,0.21238 -0.24199,0.21238 -0.0234,0 0.0473,-0.0956 0.15704,-0.21238 z m -69.16,-1.38043 c -0.10566,-0.13474 -0.10266,-0.13774 0.0321,-0.0321 0.1415,0.11098 0.1865,0.18074 0.11659,0.18074 -0.0176,0 -0.0845,-0.0669 -0.14867,-0.14866 z m -5.04902,-0.38227 -0.2495,-0.27609 0.27608,0.2495 c 0.25736,0.23258 0.31514,0.30267 0.24951,0.30267 -0.0146,0 -0.13886,-0.12424 -0.27609,-0.27608 z m 75.73812,0.2495 c 0,-0.0146 0.12424,-0.13886 0.27609,-0.27609 l 0.27608,-0.2495 -0.2495,0.27609 c -0.23258,0.25735 -0.30267,0.31513 -0.30267,0.2495 z m -72.54883,-1.65118 -0.80535,-0.82826 0.82826,0.80534 c 0.76928,0.748 0.86691,0.85118 0.80535,0.85118 -0.0126,0 -0.38532,-0.37271 -0.82826,-0.82826 z m 69.61806,-0.0212 c 0.46547,-0.46723 0.86543,-0.8495 0.88879,-0.8495 0.0234,0 -0.33837,0.38227 -0.80384,0.8495 -0.46547,0.46722 -0.86543,0.84949 -0.88879,0.84949 -0.0234,0 0.33837,-0.38227 0.80384,-0.84949 z m -73.87471,0.27608 c -0.10567,-0.13474 -0.10266,-0.13774 0.0321,-0.0321 0.0818,0.0641 0.14866,0.13102 0.14866,0.14866 0,0.0699 -0.0698,0.0249 -0.18073,-0.11659 z m 77.99478,0.11659 c 0,-0.0176 0.0669,-0.0845 0.14866,-0.14866 0.13474,-0.10567 0.13774,-0.10267 0.0321,0.0321 -0.11098,0.1415 -0.18074,0.18651 -0.18074,0.11659 z m -75.53124,-2.24033 c -0.10566,-0.13474 -0.10266,-0.13774 0.0321,-0.0321 0.0818,0.0641 0.14866,0.13103 0.14866,0.14866 0,0.0699 -0.0698,0.0249 -0.18074,-0.11658 z m 73.06769,0.11658 c 0,-0.0176 0.0669,-0.0845 0.14866,-0.14866 0.13474,-0.10566 0.13774,-0.10266 0.0321,0.0321 -0.11098,0.1415 -0.18074,0.1865 -0.18074,0.11658 z m -60.39933,-5.09698 c 0,-0.0176 0.0669,-0.0845 0.14867,-0.14867 0.13473,-0.10566 0.13774,-0.10266 0.0321,0.0321 -0.11098,0.1415 -0.18074,0.1865 -0.18074,0.11659 z m 47.73097,-0.11659 c -0.10567,-0.13474 -0.10266,-0.13774 0.0321,-0.0321 0.0818,0.0641 0.14867,0.13103 0.14867,0.14867 0,0.0699 -0.0698,0.0249 -0.18074,-0.11659 z m -45.43732,-2.17706 c 0,-0.0176 0.0669,-0.0845 0.14866,-0.14866 0.13474,-0.10567 0.13774,-0.10266 0.0321,0.0321 -0.11097,0.14151 -0.18073,0.18651 -0.18073,0.11659 z m 43.14368,-0.11659 c -0.10567,-0.13473 -0.10267,-0.13774 0.0321,-0.0321 0.0818,0.0641 0.14866,0.13102 0.14866,0.14866 0,0.0699 -0.0698,0.0249 -0.18073,-0.11659 z m -19.62851,-8.23445 c 0.0613,-0.0245 0.1346,-0.0215 0.16282,0.007 0.0282,0.0282 -0.0219,0.0483 -0.11149,0.0446 -0.099,-0.004 -0.11909,-0.0242 -0.0513,-0.0513 z m -2.80865,-8.83301 c 0.0584,-0.0236 0.15397,-0.0236 0.21237,0 0.0584,0.0236 0.0106,0.0428 -0.10618,0.0428 -0.11681,0 -0.16459,-0.0193 -0.10619,-0.0428 z m 1.78926,-0.002 c 0.0613,-0.0245 0.13459,-0.0215 0.16282,0.007 0.0282,0.0282 -0.022,0.0483 -0.1115,0.0446 -0.099,-0.004 -0.11909,-0.0242 -0.0513,-0.0513 z m 12.0788,-4.90114 c 0,-0.0176 0.0669,-0.0845 0.14866,-0.14866 0.13474,-0.10566 0.13774,-0.10266 0.0321,0.0321 -0.11098,0.1415 -0.18074,0.1865 -0.18074,0.11658 z m 39.42342,-0.61212 c 0.004,-0.099 0.0242,-0.1191 0.0513,-0.0513 0.0245,0.0613 0.0215,0.13459 -0.007,0.16282 -0.0282,0.0282 -0.0483,-0.0219 -0.0446,-0.11149 z m -101.51504,-0.5097 c 0.004,-0.099 0.0242,-0.11909 0.0513,-0.0513 0.0245,0.0613 0.0215,0.13459 -0.007,0.16282 -0.0282,0.0282 -0.0483,-0.0219 -0.0446,-0.11149 z m 98.28695,0 c 0.004,-0.099 0.0242,-0.11909 0.0513,-0.0513 0.0245,0.0613 0.0215,0.13459 -0.007,0.16282 -0.0282,0.0282 -0.0483,-0.0219 -0.0446,-0.11149 z m -63.59972,-0.39644 -0.16183,-0.19113 0.19114,0.16182 c 0.17962,0.15208 0.22981,0.22045 0.16183,0.22045 -0.0161,0 -0.10214,-0.086 -0.19114,-0.19114 z m -37.97636,-2.01756 c 0,-0.44386 0.0143,-0.62544 0.0318,-0.40351 0.0175,0.22193 0.0175,0.5851 0,0.80703 -0.0175,0.22193 -0.0318,0.0403 -0.0318,-0.40352 z m 104.91258,0.0425 c 0,-0.4205 0.0141,-0.60324 0.0319,-0.40607 0.0178,0.19716 0.018,0.5412 8.5e-4,0.76454 -0.0176,0.22334 -0.0321,0.062 -0.0324,-0.35847 z m -101.62345,-2.47062 c 0.004,-0.099 0.0242,-0.1191 0.0513,-0.0513 0.0245,0.0613 0.0215,0.13459 -0.007,0.16282 -0.0282,0.0282 -0.0483,-0.0219 -0.0446,-0.11149 z m 98.28695,0 c 0.004,-0.099 0.0242,-0.1191 0.0513,-0.0513 0.0245,0.0613 0.0215,0.13459 -0.007,0.16282 -0.0282,0.0282 -0.0483,-0.0219 -0.0446,-0.11149 z m 3.22809,-0.5097 c 0.004,-0.099 0.0242,-0.11909 0.0513,-0.0513 0.0245,0.0613 0.0215,0.1346 -0.007,0.16282 -0.0282,0.0282 -0.0483,-0.0219 -0.0446,-0.11149 z m -32.95382,-7.17118 c 0,-0.11681 0.0193,-0.1646 0.0428,-0.10619 0.0236,0.0584 0.0236,0.15397 0,0.21237 -0.0236,0.0584 -0.0428,0.0106 -0.0428,-0.10618 z m -38.82207,-1.78395 c 0,-0.11681 0.0193,-0.16459 0.0428,-0.10619 0.0236,0.0584 0.0236,0.15397 0,0.21238 -0.0236,0.0584 -0.0428,0.0106 -0.0428,-0.10619 z m 4.82872,-11.92505 c 0,-0.0176 0.0669,-0.0845 0.14867,-0.14866 0.13473,-0.10567 0.13774,-0.10267 0.0321,0.0321 -0.11098,0.14151 -0.18074,0.18651 -0.18074,0.11659 z m 29.04201,-0.11659 c -0.10567,-0.13474 -0.10266,-0.13774 0.0321,-0.0321 0.0818,0.0641 0.14867,0.13102 0.14867,0.14866 0,0.0699 -0.0698,0.0249 -0.18074,-0.11659 z m -27.51291,-1.41251 c 0,-0.0176 0.0669,-0.0845 0.14866,-0.14866 0.13474,-0.10567 0.13774,-0.10266 0.0321,0.0321 -0.11098,0.14151 -0.18074,0.18651 -0.18074,0.11659 z m 25.98381,-0.11659 c -0.10566,-0.13473 -0.10266,-0.13774 0.0321,-0.0321 0.0818,0.0641 0.14866,0.13102 0.14866,0.14866 0,0.0699 -0.0698,0.0249 -0.18074,-0.11659 z m -12.07327,-4.91963 c 0.0584,-0.0236 0.15397,-0.0236 0.21237,0 0.0584,0.0236 0.0106,0.0428 -0.10619,0.0428 -0.1168,0 -0.16459,-0.0193 -0.10618,-0.0428 z M 159.09333,162.213 c 0,-0.0176 0.0669,-0.0845 0.14866,-0.14867 0.13474,-0.10566 0.13774,-0.10266 0.0321,0.0321 -0.11097,0.1415 -0.18073,0.1865 -0.18073,0.11659 z m 73.21591,-0.11659 c -0.10566,-0.13474 -0.10266,-0.13774 0.0321,-0.0321 0.1415,0.11098 0.18651,0.18074 0.11658,0.18074 -0.0176,0 -0.0845,-0.0669 -0.14866,-0.14866 z m -72.19651,-0.98227 c 0,-0.0146 0.12424,-0.13886 0.27608,-0.27609 l 0.27609,-0.2495 -0.24951,0.27609 c -0.23257,0.25735 -0.30266,0.31513 -0.30266,0.2495 z m 70.84815,-0.44064 c -0.20634,-0.21025 -0.35605,-0.38228 -0.33269,-0.38228 0.0234,0 0.2113,0.17203 0.41764,0.38228 0.20635,0.21025 0.35606,0.38227 0.3327,0.38227 -0.0234,0 -0.2113,-0.17202 -0.41765,-0.38227 z m -69.70133,-0.72207 c 0.32455,-0.32706 0.6092,-0.59465 0.63257,-0.59465 0.0234,0 -0.22307,0.26759 -0.54762,0.59465 -0.32455,0.32705 -0.60921,0.59464 -0.63257,0.59464 -0.0234,0 0.22307,-0.26759 0.54762,-0.59464 z m -4.62977,0.13782 c 0,-0.0176 0.0669,-0.0845 0.14867,-0.14866 0.13473,-0.10567 0.13774,-0.10266 0.0321,0.0321 -0.11098,0.14151 -0.18074,0.18651 -0.18074,0.11659 z m 78.14301,-0.11659 c -0.10566,-0.13473 -0.10266,-0.13774 0.0321,-0.0321 0.14151,0.11097 0.18651,0.18073 0.11659,0.18073 -0.0176,0 -0.0845,-0.0669 -0.14866,-0.14866 z m -4.79417,-0.29732 -0.24951,-0.27609 0.27609,0.24951 c 0.15185,0.13722 0.27609,0.26146 0.27609,0.27608 0,0.0656 -0.0701,0.008 -0.30267,-0.2495 z m -72.15954,-0.87074 c 0.1585,-0.16353 0.30729,-0.29732 0.33065,-0.29732 0.0234,0 -0.0872,0.13379 -0.2457,0.29732 -0.1585,0.16353 -0.30729,0.29733 -0.33065,0.29733 -0.0234,0 0.0872,-0.1338 0.2457,-0.29733 z m 75.93872,0.0637 -0.20595,-0.23361 0.23362,0.20595 c 0.12848,0.11327 0.23361,0.21839 0.23361,0.23361 0,0.0666 -0.0688,0.0124 -0.26128,-0.20595 z m -71.01163,-0.30816 c 0,-0.0176 0.0669,-0.0845 0.14866,-0.14866 0.13474,-0.10566 0.13774,-0.10266 0.0321,0.0321 -0.11098,0.1415 -0.18074,0.1865 -0.18074,0.11658 z m 65.91023,-0.11658 c -0.10566,-0.13474 -0.10266,-0.13774 0.0321,-0.0321 0.1415,0.11098 0.1865,0.18074 0.11658,0.18074 -0.0176,0 -0.0845,-0.0669 -0.14866,-0.14866 z m 3.27606,-1.40168 -0.2495,-0.27608 0.27609,0.2495 c 0.25735,0.23258 0.31513,0.30267 0.2495,0.30267 -0.0146,0 -0.13886,-0.12424 -0.27609,-0.27609 z m -72.32943,-0.0212 c 0.10973,-0.11681 0.21863,-0.21238 0.24199,-0.21238 0.0234,0 -0.0473,0.0956 -0.15704,0.21238 -0.10974,0.1168 -0.21863,0.21237 -0.24199,0.21237 -0.0234,0 0.0473,-0.0956 0.15704,-0.21237 z m 1.0194,-0.92405 c 0,-0.0176 0.0669,-0.0845 0.14866,-0.14866 0.13473,-0.10567 0.13774,-0.10266 0.0321,0.0321 -0.11097,0.14151 -0.18073,0.18651 -0.18073,0.11659 z m 70.15772,-0.11659 c -0.10567,-0.13473 -0.10267,-0.13774 0.0321,-0.0321 0.1415,0.11097 0.18651,0.18073 0.11659,0.18073 -0.0176,0 -0.0845,-0.0669 -0.14866,-0.14866 z M 192.71753,142.6486 c 0.0613,-0.0245 0.1346,-0.0215 0.16282,0.007 0.0282,0.0282 -0.0219,0.0483 -0.11149,0.0446 -0.099,-0.004 -0.11909,-0.0242 -0.0513,-0.0513 z m 5.94649,0 c 0.0613,-0.0245 0.13459,-0.0215 0.16282,0.007 0.0282,0.0282 -0.0219,0.0483 -0.11149,0.0446 -0.099,-0.004 -0.1191,-0.0242 -0.0513,-0.0513 z m -3.27588,-0.0888 c 0.17521,-0.0183 0.46192,-0.0183 0.63713,0 0.17521,0.0183 0.0318,0.0333 -0.31856,0.0333 -0.35042,0 -0.49378,-0.015 -0.31857,-0.0333 z"
         id="path868" />
      <path
         style="fill:#ff0000;fill-opacity:1;stroke-width:0.0849498"
         d="m 192.73346,247.39983 c -0.16353,-0.018 -0.83251,-0.0736 -1.48662,-0.12376 -5.75548,-0.44104 -12.12891,-2.14494 -17.6196,-4.7105 -16.21135,-7.57487 -27.40981,-22.81015 -29.81592,-40.56398 -0.33683,-2.48532 -0.39124,-3.45407 -0.39124,-6.96589 0,-3.51181 0.0544,-4.48056 0.39124,-6.96588 0.84697,-6.24951 2.75841,-12.18116 5.70759,-17.71204 7.53015,-14.12202 21.18382,-24.0855 36.88579,-26.91664 3.13267,-0.56484 4.99755,-0.7411 8.41003,-0.79486 3.88208,-0.0612 6.22779,0.10017 9.59933,0.66021 19.92856,3.31026 36.22889,17.85314 41.79224,37.28633 0.9134,3.19057 1.47741,6.21494 1.84588,9.89807 0.14946,1.49397 0.1491,7.49468 -8.5e-4,9.08963 -1.4116,15.04511 -8.81168,28.36878 -20.76385,37.38482 -6.95488,5.24639 -15.25353,8.69948 -23.97124,9.97452 -2.46278,0.36022 -3.66224,0.43999 -7.0152,0.46662 -1.79881,0.0143 -3.40436,0.0113 -3.56789,-0.007 z m -27.14491,-13.86061 c 0.24552,-0.99835 1.84288,-4.31618 2.90793,-6.03998 2.14722,-3.47529 5.09275,-6.65613 8.38654,-9.05652 2.71564,-1.97906 5.9782,-3.63226 9.22435,-4.67416 5.09444,-1.63514 10.88466,-1.92508 16.23291,-0.81287 5.8475,1.21605 11.30205,4.08933 15.64418,8.24085 3.45003,3.2986 6.33286,7.68242 7.87918,11.98164 0.10924,0.30369 0.2096,0.56638 0.22304,0.58376 0.0338,0.0436 1.0322,-0.75183 1.90096,-1.51447 2.90014,-2.54592 5.05728,-4.87102 7.28327,-7.85038 4.83835,-6.47585 8.07875,-14.33496 9.23393,-22.3955 0.36061,-2.51629 0.42401,-3.55797 0.42401,-6.96589 0,-4.04467 -0.1456,-5.70491 -0.80832,-9.21705 -3.5308,-18.71163 -17.74973,-33.81114 -36.22352,-38.46685 -4.55405,-1.1477 -8.25141,-1.56498 -13.08228,-1.47646 -5.02233,0.092 -9.4419,0.82213 -14.10167,2.32955 -13.48781,4.36324 -24.37022,14.20783 -30.02867,27.16493 -3.43449,7.86452 -4.75874,16.72953 -3.77519,25.27257 1.45666,12.65256 7.77645,24.28603 17.57844,32.35836 0.51395,0.42326 0.95898,0.77012 0.98895,0.77081 0.03,8.5e-4 0.0804,-0.10386 0.11196,-0.23234 z m 29.14123,-30.05944 c -2.88853,-0.21655 -5.28722,-0.86709 -7.73714,-2.09835 -5.20065,-2.61372 -9.03253,-7.63402 -10.22529,-13.39656 -0.52849,-2.55333 -0.51562,-5.3285 0.0371,-7.9885 1.20388,-5.79418 5.16561,-10.81038 10.59399,-13.41375 3.73088,-1.78928 7.70435,-2.33943 11.76331,-1.62872 6.16956,1.08028 11.40351,5.05638 14.1245,10.73002 1.91871,4.00076 2.4122,8.30236 1.45019,12.64075 -0.89095,4.01795 -3.11086,7.73118 -6.22472,10.41207 -2.91716,2.51154 -6.58726,4.15568 -10.30234,4.61526 -0.79327,0.0981 -2.86176,0.1741 -3.47956,0.12778 z"
         id="path866" />
    </g>
  </g>
</svg>
